<svg xmlns="http://www.w3.org/2000/svg" xmlns:xlink="http://www.w3.org/1999/xlink" xmlns:s="https://github.com/nturley/netlistsvg" width="1883" height="812">
  <style>svg {
    stroke:#000;
    fill:none;
  }
  text {
    fill:#000;
    stroke:none;
    font-size:10px;
    font-weight: bold;
    font-family: "Courier New", monospace;
  }
  .nodelabel {
    text-anchor: middle;
  }
  .inputPortLabel {
    text-anchor: end;
  }
  .splitjoinBody {
    fill:#000;
  }</style>
  <g s:type="add" transform="translate(1250.6666666666667,140.5)" s:width="25" s:height="25" id="cell_$add$tt_um_digitaler_filter.v:63$10">
    <s:alias val="$add"/>
    <circle r="12.5" cx="12.5" cy="12.5" class="cell_$add$tt_um_digitaler_filter.v:63$10"/>
    <line x1="7.5" x2="17.5" y1="12.5" y2="12.5" class="cell_$add$tt_um_digitaler_filter.v:63$10"/>
    <line x1="12.5" x2="12.5" y1="7.5" y2="17.5" class="cell_$add$tt_um_digitaler_filter.v:63$10"/>
    <g s:x="3" s:y="5" s:pid="A"/>
    <g s:x="3" s:y="20" s:pid="B"/>
    <g s:x="25" s:y="12.5" s:pid="Y"/>
  </g>
  <g s:type="add" transform="translate(1011.3333333333334,125.5)" s:width="25" s:height="25" id="cell_$add$tt_um_digitaler_filter.v:63$6">
    <s:alias val="$add"/>
    <circle r="12.5" cx="12.5" cy="12.5" class="cell_$add$tt_um_digitaler_filter.v:63$6"/>
    <line x1="7.5" x2="17.5" y1="12.5" y2="12.5" class="cell_$add$tt_um_digitaler_filter.v:63$6"/>
    <line x1="12.5" x2="12.5" y1="7.5" y2="17.5" class="cell_$add$tt_um_digitaler_filter.v:63$6"/>
    <g s:x="3" s:y="5" s:pid="A"/>
    <g s:x="3" s:y="20" s:pid="B"/>
    <g s:x="25" s:y="12.5" s:pid="Y"/>
  </g>
  <g s:type="add" transform="translate(1189,133)" s:width="25" s:height="25" id="cell_$add$tt_um_digitaler_filter.v:63$8">
    <s:alias val="$add"/>
    <circle r="12.5" cx="12.5" cy="12.5" class="cell_$add$tt_um_digitaler_filter.v:63$8"/>
    <line x1="7.5" x2="17.5" y1="12.5" y2="12.5" class="cell_$add$tt_um_digitaler_filter.v:63$8"/>
    <line x1="12.5" x2="12.5" y1="7.5" y2="17.5" class="cell_$add$tt_um_digitaler_filter.v:63$8"/>
    <g s:x="3" s:y="5" s:pid="A"/>
    <g s:x="3" s:y="20" s:pid="B"/>
    <g s:x="25" s:y="12.5" s:pid="Y"/>
  </g>
  <g s:type="add" transform="translate(1515.3333333333333,633)" s:width="25" s:height="25" id="cell_$add$tt_um_digitaler_filter.v:65$11">
    <s:alias val="$add"/>
    <circle r="12.5" cx="12.5" cy="12.5" class="cell_$add$tt_um_digitaler_filter.v:65$11"/>
    <line x1="7.5" x2="17.5" y1="12.5" y2="12.5" class="cell_$add$tt_um_digitaler_filter.v:65$11"/>
    <line x1="12.5" x2="12.5" y1="7.5" y2="17.5" class="cell_$add$tt_um_digitaler_filter.v:65$11"/>
    <g s:x="3" s:y="5" s:pid="A"/>
    <g s:x="3" s:y="20" s:pid="B"/>
    <g s:x="25" s:y="12.5" s:pid="Y"/>
  </g>
  <g s:type="generic" transform="translate(458,130)" s:width="30" s:height="40" id="cell_$mul$tt_um_digitaler_filter.v:63$4">
    <text x="15" y="-4" class="nodelabel cell_$mul$tt_um_digitaler_filter.v:63$4" s:attribute="ref">$mul</text>
    <rect width="30" height="40" s:generic="body" class="cell_$mul$tt_um_digitaler_filter.v:63$4"/>
    <g transform="translate(0,10)" s:x="0" s:y="10" s:pid="in0" id="port_$mul$tt_um_digitaler_filter.v:63$4~A">
      <text x="-3" y="-4" class="inputPortLabel cell_$mul$tt_um_digitaler_filter.v:63$4">A</text>
    </g>
    <g transform="translate(0,30)" s:x="0" s:y="10" s:pid="in0" id="port_$mul$tt_um_digitaler_filter.v:63$4~B">
      <text x="-3" y="-4" class="inputPortLabel cell_$mul$tt_um_digitaler_filter.v:63$4">B</text>
    </g>
    <g transform="translate(30,10)" s:x="30" s:y="10" s:pid="out0" id="port_$mul$tt_um_digitaler_filter.v:63$4~Y">
      <text x="5" y="-4" style="fill:#000; stroke:none" class="cell_$mul$tt_um_digitaler_filter.v:63$4">Y</text>
    </g>
  </g>
  <g s:type="generic" transform="translate(458,218)" s:width="30" s:height="40" id="cell_$mul$tt_um_digitaler_filter.v:63$5">
    <text x="15" y="-4" class="nodelabel cell_$mul$tt_um_digitaler_filter.v:63$5" s:attribute="ref">$mul</text>
    <rect width="30" height="40" s:generic="body" class="cell_$mul$tt_um_digitaler_filter.v:63$5"/>
    <g transform="translate(0,10)" s:x="0" s:y="10" s:pid="in0" id="port_$mul$tt_um_digitaler_filter.v:63$5~A">
      <text x="-3" y="-4" class="inputPortLabel cell_$mul$tt_um_digitaler_filter.v:63$5">A</text>
    </g>
    <g transform="translate(0,30)" s:x="0" s:y="10" s:pid="in0" id="port_$mul$tt_um_digitaler_filter.v:63$5~B">
      <text x="-3" y="-4" class="inputPortLabel cell_$mul$tt_um_digitaler_filter.v:63$5">B</text>
    </g>
    <g transform="translate(30,10)" s:x="30" s:y="10" s:pid="out0" id="port_$mul$tt_um_digitaler_filter.v:63$5~Y">
      <text x="5" y="-4" style="fill:#000; stroke:none" class="cell_$mul$tt_um_digitaler_filter.v:63$5">Y</text>
    </g>
  </g>
  <g s:type="generic" transform="translate(704,337)" s:width="30" s:height="40" id="cell_$mul$tt_um_digitaler_filter.v:63$7">
    <text x="15" y="-4" class="nodelabel cell_$mul$tt_um_digitaler_filter.v:63$7" s:attribute="ref">$mul</text>
    <rect width="30" height="40" s:generic="body" class="cell_$mul$tt_um_digitaler_filter.v:63$7"/>
    <g transform="translate(0,10)" s:x="0" s:y="10" s:pid="in0" id="port_$mul$tt_um_digitaler_filter.v:63$7~A">
      <text x="-3" y="-4" class="inputPortLabel cell_$mul$tt_um_digitaler_filter.v:63$7">A</text>
    </g>
    <g transform="translate(0,30)" s:x="0" s:y="10" s:pid="in0" id="port_$mul$tt_um_digitaler_filter.v:63$7~B">
      <text x="-3" y="-4" class="inputPortLabel cell_$mul$tt_um_digitaler_filter.v:63$7">B</text>
    </g>
    <g transform="translate(30,10)" s:x="30" s:y="10" s:pid="out0" id="port_$mul$tt_um_digitaler_filter.v:63$7~Y">
      <text x="5" y="-4" style="fill:#000; stroke:none" class="cell_$mul$tt_um_digitaler_filter.v:63$7">Y</text>
    </g>
  </g>
  <g s:type="generic" transform="translate(950,379.5)" s:width="30" s:height="40" id="cell_$mul$tt_um_digitaler_filter.v:63$9">
    <text x="15" y="-4" class="nodelabel cell_$mul$tt_um_digitaler_filter.v:63$9" s:attribute="ref">$mul</text>
    <rect width="30" height="40" s:generic="body" class="cell_$mul$tt_um_digitaler_filter.v:63$9"/>
    <g transform="translate(0,10)" s:x="0" s:y="10" s:pid="in0" id="port_$mul$tt_um_digitaler_filter.v:63$9~A">
      <text x="-3" y="-4" class="inputPortLabel cell_$mul$tt_um_digitaler_filter.v:63$9">A</text>
    </g>
    <g transform="translate(0,30)" s:x="0" s:y="10" s:pid="in0" id="port_$mul$tt_um_digitaler_filter.v:63$9~B">
      <text x="-3" y="-4" class="inputPortLabel cell_$mul$tt_um_digitaler_filter.v:63$9">B</text>
    </g>
    <g transform="translate(30,10)" s:x="30" s:y="10" s:pid="out0" id="port_$mul$tt_um_digitaler_filter.v:63$9~Y">
      <text x="5" y="-4" style="fill:#000; stroke:none" class="cell_$mul$tt_um_digitaler_filter.v:63$9">Y</text>
    </g>
  </g>
  <g s:type="generic" transform="translate(1345,632.5)" s:width="30" s:height="40" id="cell_$procdff$14">
    <text x="15" y="-4" class="nodelabel cell_$procdff$14" s:attribute="ref">$aldff</text>
    <rect width="30" height="80" s:generic="body" class="cell_$procdff$14"/>
    <g transform="translate(0,10)" s:x="0" s:y="10" s:pid="in0" id="port_$procdff$14~AD">
      <text x="-3" y="-4" class="inputPortLabel cell_$procdff$14">AD</text>
    </g>
    <g transform="translate(0,30)" s:x="0" s:y="10" s:pid="in0" id="port_$procdff$14~ALOAD">
      <text x="-3" y="-4" class="inputPortLabel cell_$procdff$14">ALOAD</text>
    </g>
    <g transform="translate(0,50)" s:x="0" s:y="10" s:pid="in0" id="port_$procdff$14~CLK">
      <text x="-3" y="-4" class="inputPortLabel cell_$procdff$14">CLK</text>
    </g>
    <g transform="translate(0,70)" s:x="0" s:y="10" s:pid="in0" id="port_$procdff$14~D">
      <text x="-3" y="-4" class="inputPortLabel cell_$procdff$14">D</text>
    </g>
    <g transform="translate(30,10)" s:x="30" s:y="10" s:pid="out0" id="port_$procdff$14~Q">
      <text x="5" y="-4" style="fill:#000; stroke:none" class="cell_$procdff$14">Q</text>
    </g>
  </g>
  <g s:type="generic" transform="translate(1608,706)" s:width="30" s:height="40" id="cell_$procdff$15">
    <text x="15" y="-4" class="nodelabel cell_$procdff$15" s:attribute="ref">$aldff</text>
    <rect width="30" height="80" s:generic="body" class="cell_$procdff$15"/>
    <g transform="translate(0,10)" s:x="0" s:y="10" s:pid="in0" id="port_$procdff$15~AD">
      <text x="-3" y="-4" class="inputPortLabel cell_$procdff$15">AD</text>
    </g>
    <g transform="translate(0,30)" s:x="0" s:y="10" s:pid="in0" id="port_$procdff$15~ALOAD">
      <text x="-3" y="-4" class="inputPortLabel cell_$procdff$15">ALOAD</text>
    </g>
    <g transform="translate(0,50)" s:x="0" s:y="10" s:pid="in0" id="port_$procdff$15~CLK">
      <text x="-3" y="-4" class="inputPortLabel cell_$procdff$15">CLK</text>
    </g>
    <g transform="translate(0,70)" s:x="0" s:y="10" s:pid="in0" id="port_$procdff$15~D">
      <text x="-3" y="-4" class="inputPortLabel cell_$procdff$15">D</text>
    </g>
    <g transform="translate(30,10)" s:x="30" s:y="10" s:pid="out0" id="port_$procdff$15~Q">
      <text x="5" y="-4" style="fill:#000; stroke:none" class="cell_$procdff$15">Q</text>
    </g>
  </g>
  <g s:type="generic" transform="translate(213,150)" s:width="30" s:height="40" id="cell_$procdff$20">
    <text x="15" y="-4" class="nodelabel cell_$procdff$20" s:attribute="ref">$aldff</text>
    <rect width="30" height="80" s:generic="body" class="cell_$procdff$20"/>
    <g transform="translate(0,10)" s:x="0" s:y="10" s:pid="in0" id="port_$procdff$20~AD">
      <text x="-3" y="-4" class="inputPortLabel cell_$procdff$20">AD</text>
    </g>
    <g transform="translate(0,30)" s:x="0" s:y="10" s:pid="in0" id="port_$procdff$20~ALOAD">
      <text x="-3" y="-4" class="inputPortLabel cell_$procdff$20">ALOAD</text>
    </g>
    <g transform="translate(0,50)" s:x="0" s:y="10" s:pid="in0" id="port_$procdff$20~CLK">
      <text x="-3" y="-4" class="inputPortLabel cell_$procdff$20">CLK</text>
    </g>
    <g transform="translate(0,70)" s:x="0" s:y="10" s:pid="in0" id="port_$procdff$20~D">
      <text x="-3" y="-4" class="inputPortLabel cell_$procdff$20">D</text>
    </g>
    <g transform="translate(30,10)" s:x="30" s:y="10" s:pid="out0" id="port_$procdff$20~Q">
      <text x="5" y="-4" style="fill:#000; stroke:none" class="cell_$procdff$20">Q</text>
    </g>
  </g>
  <g s:type="generic" transform="translate(345,445)" s:width="30" s:height="40" id="cell_$procdff$21">
    <text x="15" y="-4" class="nodelabel cell_$procdff$21" s:attribute="ref">$aldff</text>
    <rect width="30" height="80" s:generic="body" class="cell_$procdff$21"/>
    <g transform="translate(0,10)" s:x="0" s:y="10" s:pid="in0" id="port_$procdff$21~AD">
      <text x="-3" y="-4" class="inputPortLabel cell_$procdff$21">AD</text>
    </g>
    <g transform="translate(0,30)" s:x="0" s:y="10" s:pid="in0" id="port_$procdff$21~ALOAD">
      <text x="-3" y="-4" class="inputPortLabel cell_$procdff$21">ALOAD</text>
    </g>
    <g transform="translate(0,50)" s:x="0" s:y="10" s:pid="in0" id="port_$procdff$21~CLK">
      <text x="-3" y="-4" class="inputPortLabel cell_$procdff$21">CLK</text>
    </g>
    <g transform="translate(0,70)" s:x="0" s:y="10" s:pid="in0" id="port_$procdff$21~D">
      <text x="-3" y="-4" class="inputPortLabel cell_$procdff$21">D</text>
    </g>
    <g transform="translate(30,10)" s:x="30" s:y="10" s:pid="out0" id="port_$procdff$21~Q">
      <text x="5" y="-4" style="fill:#000; stroke:none" class="cell_$procdff$21">Q</text>
    </g>
  </g>
  <g s:type="generic" transform="translate(505.8,507.5)" s:width="30" s:height="40" id="cell_$procdff$22">
    <text x="15" y="-4" class="nodelabel cell_$procdff$22" s:attribute="ref">$aldff</text>
    <rect width="30" height="80" s:generic="body" class="cell_$procdff$22"/>
    <g transform="translate(0,10)" s:x="0" s:y="10" s:pid="in0" id="port_$procdff$22~AD">
      <text x="-3" y="-4" class="inputPortLabel cell_$procdff$22">AD</text>
    </g>
    <g transform="translate(0,30)" s:x="0" s:y="10" s:pid="in0" id="port_$procdff$22~ALOAD">
      <text x="-3" y="-4" class="inputPortLabel cell_$procdff$22">ALOAD</text>
    </g>
    <g transform="translate(0,50)" s:x="0" s:y="10" s:pid="in0" id="port_$procdff$22~CLK">
      <text x="-3" y="-4" class="inputPortLabel cell_$procdff$22">CLK</text>
    </g>
    <g transform="translate(0,70)" s:x="0" s:y="10" s:pid="in0" id="port_$procdff$22~D">
      <text x="-3" y="-4" class="inputPortLabel cell_$procdff$22">D</text>
    </g>
    <g transform="translate(30,10)" s:x="30" s:y="10" s:pid="out0" id="port_$procdff$22~Q">
      <text x="5" y="-4" style="fill:#000; stroke:none" class="cell_$procdff$22">Q</text>
    </g>
  </g>
  <g s:type="generic" transform="translate(751.8,570)" s:width="30" s:height="40" id="cell_$procdff$23">
    <text x="15" y="-4" class="nodelabel cell_$procdff$23" s:attribute="ref">$aldff</text>
    <rect width="30" height="80" s:generic="body" class="cell_$procdff$23"/>
    <g transform="translate(0,10)" s:x="0" s:y="10" s:pid="in0" id="port_$procdff$23~AD">
      <text x="-3" y="-4" class="inputPortLabel cell_$procdff$23">AD</text>
    </g>
    <g transform="translate(0,30)" s:x="0" s:y="10" s:pid="in0" id="port_$procdff$23~ALOAD">
      <text x="-3" y="-4" class="inputPortLabel cell_$procdff$23">ALOAD</text>
    </g>
    <g transform="translate(0,50)" s:x="0" s:y="10" s:pid="in0" id="port_$procdff$23~CLK">
      <text x="-3" y="-4" class="inputPortLabel cell_$procdff$23">CLK</text>
    </g>
    <g transform="translate(0,70)" s:x="0" s:y="10" s:pid="in0" id="port_$procdff$23~D">
      <text x="-3" y="-4" class="inputPortLabel cell_$procdff$23">D</text>
    </g>
    <g transform="translate(30,10)" s:x="30" s:y="10" s:pid="out0" id="port_$procdff$23~Q">
      <text x="5" y="-4" style="fill:#000; stroke:none" class="cell_$procdff$23">Q</text>
    </g>
  </g>
  <g s:type="mux" transform="translate(1774,207)" s:width="20" s:height="40" id="cell_$ternary$tt_um_digitaler_filter.v:72$13">
    <s:alias val="$pmux"/>
    <s:alias val="$mux"/>
    <s:alias val="$_MUX_"/>
    <path d="M0,0 L20,10 L20,30 L0,40 Z" class="cell_$ternary$tt_um_digitaler_filter.v:72$13"/>
    <g s:x="0" s:y="10" s:pid="A"/>
    <g s:x="0" s:y="30" s:pid="B"/>
    <g s:x="10" s:y="35" s:pid="S"/>
    <g s:x="20" s:y="20" s:pid="Y"/>
  </g>
  <g s:type="inputExt" transform="translate(102,22)" s:width="30" s:height="20" id="cell_ui_in">
    <text x="15" y="-4" class="nodelabel cell_ui_in" s:attribute="ref">ui_in</text>
    <s:alias val="$_inputExt_"/>
    <path d="M0,0 L0,20 L15,20 L30,10 L15,0 Z" class="cell_ui_in"/>
    <g s:x="28" s:y="10" s:pid="Y"/>
  </g>
  <g s:type="outputExt" transform="translate(1829,217)" s:width="30" s:height="20" id="cell_uo_out">
    <text x="15" y="-4" class="nodelabel cell_uo_out" s:attribute="ref">uo_out</text>
    <s:alias val="$_outputExt_"/>
    <path d="M30,0 L30,20 L15,20 L0,10 L15,0 Z" class="cell_uo_out"/>
    <g s:x="0" s:y="10" s:pid="A"/>
  </g>
  <g s:type="inputExt" transform="translate(54,22)" s:width="30" s:height="20" id="cell_uio_in">
    <text x="15" y="-4" class="nodelabel cell_uio_in" s:attribute="ref">uio_in</text>
    <s:alias val="$_inputExt_"/>
    <path d="M0,0 L0,20 L15,20 L30,10 L15,0 Z" class="cell_uio_in"/>
    <g s:x="28" s:y="10" s:pid="Y"/>
  </g>
  <g s:type="outputExt" transform="translate(1829,87)" s:width="30" s:height="20" id="cell_uio_out">
    <text x="15" y="-4" class="nodelabel cell_uio_out" s:attribute="ref">uio_out</text>
    <s:alias val="$_outputExt_"/>
    <path d="M30,0 L30,20 L15,20 L0,10 L15,0 Z" class="cell_uio_out"/>
    <g s:x="0" s:y="10" s:pid="A"/>
  </g>
  <g s:type="outputExt" transform="translate(1829,152)" s:width="30" s:height="20" id="cell_uio_oe">
    <text x="15" y="-4" class="nodelabel cell_uio_oe" s:attribute="ref">uio_oe</text>
    <s:alias val="$_outputExt_"/>
    <path d="M30,0 L30,20 L15,20 L0,10 L15,0 Z" class="cell_uio_oe"/>
    <g s:x="0" s:y="10" s:pid="A"/>
  </g>
  <g s:type="inputExt" transform="translate(12,22)" s:width="30" s:height="20" id="cell_ena">
    <text x="15" y="-4" class="nodelabel cell_ena" s:attribute="ref">ena</text>
    <s:alias val="$_inputExt_"/>
    <path d="M0,0 L0,20 L15,20 L30,10 L15,0 Z" class="cell_ena"/>
    <g s:x="28" s:y="10" s:pid="Y"/>
  </g>
  <g s:type="inputExt" transform="translate(102,190.5)" s:width="30" s:height="20" id="cell_clk">
    <text x="15" y="-4" class="nodelabel cell_clk" s:attribute="ref">clk</text>
    <s:alias val="$_inputExt_"/>
    <path d="M0,0 L0,20 L15,20 L30,10 L15,0 Z" class="cell_clk"/>
    <g s:x="28" s:y="10" s:pid="Y"/>
  </g>
  <g s:type="inputExt" transform="translate(102,465.5)" s:width="30" s:height="20" id="cell_rst_n">
    <text x="15" y="-4" class="nodelabel cell_rst_n" s:attribute="ref">rst_n</text>
    <s:alias val="$_inputExt_"/>
    <path d="M0,0 L0,20 L15,20 L30,10 L15,0 Z" class="cell_rst_n"/>
    <g s:x="28" s:y="10" s:pid="Y"/>
  </g>
  <g s:type="constant" transform="translate(458,306)" s:width="30" s:height="20" id="cell_00">
    <text x="15" y="-4" class="nodelabel cell_00" s:attribute="ref">00</text>
    <s:alias val="$_constant_"/>
    <rect width="30" height="20" class="cell_00"/>
    <g s:x="30" s:y="10" s:pid="Y"/>
  </g>
  <g s:type="constant" transform="translate(102,87)" s:width="30" s:height="20" id="cell_00000000">
    <text x="15" y="-4" class="nodelabel cell_00000000" s:attribute="ref">0x0</text>
    <s:alias val="$_constant_"/>
    <rect width="30" height="20" class="cell_00000000"/>
    <g s:x="30" s:y="10" s:pid="Y"/>
  </g>
  <g s:type="constant" transform="translate(345,380)" s:width="30" s:height="20" id="cell_001111">
    <text x="15" y="-4" class="nodelabel cell_001111" s:attribute="ref">0xf</text>
    <s:alias val="$_constant_"/>
    <rect width="30" height="20" class="cell_001111"/>
    <g s:x="30" s:y="10" s:pid="Y"/>
  </g>
  <g s:type="constant" transform="translate(345,218.5)" s:width="30" s:height="20" id="cell_010001">
    <text x="15" y="-4" class="nodelabel cell_010001" s:attribute="ref">0x11</text>
    <s:alias val="$_constant_"/>
    <rect width="30" height="20" class="cell_010001"/>
    <g s:x="30" s:y="10" s:pid="Y"/>
  </g>
  <g s:type="constant" transform="translate(1249,695)" s:width="30" s:height="20" id="cell_0000000000000000">
    <text x="15" y="-4" class="nodelabel cell_0000000000000000" s:attribute="ref">0x0</text>
    <s:alias val="$_constant_"/>
    <rect width="30" height="20" class="cell_0000000000000000"/>
    <g s:x="30" s:y="10" s:pid="Y"/>
  </g>
  <g s:type="constant" transform="translate(1512,768.5)" s:width="30" s:height="20" id="cell_000000000000000000000000">
    <text x="15" y="-4" class="nodelabel cell_000000000000000000000000" s:attribute="ref">0x0</text>
    <s:alias val="$_constant_"/>
    <rect width="30" height="20" class="cell_000000000000000000000000"/>
    <g s:x="30" s:y="10" s:pid="Y"/>
  </g>
  <g s:type="join" transform="translate(1208,345)" s:width="4" s:height="40" id="cell_$join$,229,230,45,46,47,48,49,50,51,52,53,54,55,56,57,58,">
    <rect width="5" height="40" class="splitjoinBody" s:generic="body"/>
    <s:alias val="$_join_"/>
    <g s:x="5" s:y="20" s:pid="out"/>
    <g transform="translate(0,10)" s:x="0" s:y="10" s:pid="in0">
      <text x="-3" y="-4" class="inputPortLabel">0:1</text>
    </g>
    <g transform="translate(0,30)" s:x="0" s:y="10" s:pid="in0">
      <text x="-3" y="-4" class="inputPortLabel">2:15</text>
    </g>
  </g>
  <g s:type="join" transform="translate(776.3333333333334,110)" s:width="4" s:height="40" id="cell_$join$,229,230,75,76,77,78,79,80,81,82,83,84,85,86,87,88,">
    <rect width="5" height="40" class="splitjoinBody" s:generic="body"/>
    <s:alias val="$_join_"/>
    <g s:x="5" s:y="20" s:pid="out"/>
    <g transform="translate(0,10)" s:x="0" s:y="10" s:pid="in0">
      <text x="-3" y="-4" class="inputPortLabel">0:1</text>
    </g>
    <g transform="translate(0,30)" s:x="0" s:y="10" s:pid="in0">
      <text x="-3" y="-4" class="inputPortLabel">2:15</text>
    </g>
  </g>
  <g s:type="join" transform="translate(776.3333333333334,198)" s:width="4" s:height="40" id="cell_$join$,229,230,89,90,91,92,93,94,95,96,97,98,99,100,101,102,">
    <rect width="5" height="40" class="splitjoinBody" s:generic="body"/>
    <s:alias val="$_join_"/>
    <g s:x="5" s:y="20" s:pid="out"/>
    <g transform="translate(0,10)" s:x="0" s:y="10" s:pid="in0">
      <text x="-3" y="-4" class="inputPortLabel">0:1</text>
    </g>
    <g transform="translate(0,30)" s:x="0" s:y="10" s:pid="in0">
      <text x="-3" y="-4" class="inputPortLabel">2:15</text>
    </g>
  </g>
  <g s:type="join" transform="translate(1018.3333333333334,305.5)" s:width="4" s:height="40" id="cell_$join$,229,230,119,120,121,122,123,124,125,126,127,128,129,130,131,132,">
    <rect width="5" height="40" class="splitjoinBody" s:generic="body"/>
    <s:alias val="$_join_"/>
    <g s:x="5" s:y="20" s:pid="out"/>
    <g transform="translate(0,10)" s:x="0" s:y="10" s:pid="in0">
      <text x="-3" y="-4" class="inputPortLabel">0:1</text>
    </g>
    <g transform="translate(0,30)" s:x="0" s:y="10" s:pid="in0">
      <text x="-3" y="-4" class="inputPortLabel">2:15</text>
    </g>
  </g>
  <g s:type="join" transform="translate(1471,632.5)" s:width="4" s:height="40" id="cell_$join$,157,158,159,160,161,162,163,164,165,166,167,168,169,170,171,172,237,238,239,240,241,242,243,244,">
    <rect width="5" height="40" class="splitjoinBody" s:generic="body"/>
    <s:alias val="$_join_"/>
    <g s:x="5" s:y="20" s:pid="out"/>
    <g transform="translate(0,10)" s:x="0" s:y="10" s:pid="in0">
      <text x="-3" y="-4" class="inputPortLabel">0:15</text>
    </g>
    <g transform="translate(0,30)" s:x="0" s:y="10" s:pid="in0">
      <text x="-3" y="-4" class="inputPortLabel">16:23</text>
    </g>
  </g>
  <g s:type="split" transform="translate(1709,206.5)" s:width="5" s:height="40" id="cell_$split$,133,134,135,136,137,138,139,140,141,142,143,144,145,146,147,148,149,150,151,152,153,154,155,156,">
    <rect width="5" height="20" class="splitjoinBody" s:generic="body"/>
    <s:alias val="$_split_"/>
    <g s:x="0" s:y="20" s:pid="in"/>
    <g transform="translate(4,10)" s:x="4" s:y="10" s:pid="out0">
      <text x="5" y="-4">8:15</text>
    </g>
  </g>
  <line x1="1214" x2="1253.6666666666667" y1="145.5" y2="145.5" class="net_29,30,31,32,33,34,35,36,37,38,39,40,41,42,43,44"/>
  <line x1="1214" x2="1224" y1="365.5" y2="365.5" class="net_229,230,45,46,47,48,49,50,51,52,53,54,55,56,57,58"/>
  <line x1="1224" x2="1224" y1="365.5" y2="160.5" class="net_229,230,45,46,47,48,49,50,51,52,53,54,55,56,57,58"/>
  <line x1="1224" x2="1253.6666666666667" y1="160.5" y2="160.5" class="net_229,230,45,46,47,48,49,50,51,52,53,54,55,56,57,58"/>
  <line x1="782.3333333333334" x2="1014.3333333333334" y1="130.5" y2="130.5" class="net_229,230,75,76,77,78,79,80,81,82,83,84,85,86,87,88"/>
  <line x1="782.3333333333334" x2="918" y1="218.5" y2="218.5" class="net_229,230,89,90,91,92,93,94,95,96,97,98,99,100,101,102"/>
  <line x1="918" x2="918" y1="218.5" y2="145.5" class="net_229,230,89,90,91,92,93,94,95,96,97,98,99,100,101,102"/>
  <line x1="918" x2="1014.3333333333334" y1="145.5" y2="145.5" class="net_229,230,89,90,91,92,93,94,95,96,97,98,99,100,101,102"/>
  <line x1="1036.3333333333335" x2="1192" y1="138" y2="138" class="net_103,104,105,106,107,108,109,110,111,112,113,114,115,116,117,118"/>
  <line x1="1024.3333333333335" x2="1164" y1="326" y2="326" class="net_229,230,119,120,121,122,123,124,125,126,127,128,129,130,131,132"/>
  <line x1="1164" x2="1164" y1="326" y2="153" class="net_229,230,119,120,121,122,123,124,125,126,127,128,129,130,131,132"/>
  <line x1="1164" x2="1192" y1="153" y2="153" class="net_229,230,119,120,121,122,123,124,125,126,127,128,129,130,131,132"/>
  <line x1="1639" x2="1684" y1="716.5" y2="716.5" class="net_133,134,135,136,137,138,139,140,141,142,143,144,145,146,147,148,149,150,151,152,153,154,155,156"/>
  <line x1="1684" x2="1684" y1="716.5" y2="623" class="net_133,134,135,136,137,138,139,140,141,142,143,144,145,146,147,148,149,150,151,152,153,154,155,156"/>
  <line x1="1684" x2="1487" y1="623" y2="623" class="net_133,134,135,136,137,138,139,140,141,142,143,144,145,146,147,148,149,150,151,152,153,154,155,156"/>
  <line x1="1487" x2="1487" y1="623" y2="638" class="net_133,134,135,136,137,138,139,140,141,142,143,144,145,146,147,148,149,150,151,152,153,154,155,156"/>
  <circle cx="1684" cy="716.5" r="2" style="fill:#000" class="net_133,134,135,136,137,138,139,140,141,142,143,144,145,146,147,148,149,150,151,152,153,154,155,156"/>
  <line x1="1487" x2="1518.3333333333333" y1="638" y2="638" class="net_133,134,135,136,137,138,139,140,141,142,143,144,145,146,147,148,149,150,151,152,153,154,155,156"/>
  <line x1="1639" x2="1709.5" y1="716.5" y2="716.5" class="net_133,134,135,136,137,138,139,140,141,142,143,144,145,146,147,148,149,150,151,152,153,154,155,156"/>
  <line x1="1709.5" x2="1709.5" y1="716.5" y2="227.5" class="net_133,134,135,136,137,138,139,140,141,142,143,144,145,146,147,148,149,150,151,152,153,154,155,156"/>
  <line x1="1477" x2="1518.3333333333333" y1="653" y2="653" class="net_157,158,159,160,161,162,163,164,165,166,167,168,169,170,171,172,237,238,239,240,241,242,243,244"/>
  <line x1="375" x2="421" y1="390" y2="390" class="net_245,246,247,248,249,250"/>
  <line x1="421" x2="421" y1="390" y2="140.5" class="net_245,246,247,248,249,250"/>
  <circle cx="421" cy="390" r="2" style="fill:#000" class="net_245,246,247,248,249,250"/>
  <line x1="421" x2="458" y1="140.5" y2="140.5" class="net_245,246,247,248,249,250"/>
  <line x1="375" x2="950" y1="390" y2="390" class="net_245,246,247,248,249,250"/>
  <line x1="244" x2="458" y1="160.5" y2="160.5" class="net_197,198,199,200,201,202,203,204"/>
  <line x1="244" x2="289" y1="160.5" y2="160.5" class="net_197,198,199,200,201,202,203,204"/>
  <line x1="289" x2="289" y1="160.5" y2="455.5" class="net_197,198,199,200,201,202,203,204"/>
  <circle cx="289" cy="160.5" r="2" style="fill:#000" class="net_197,198,199,200,201,202,203,204"/>
  <line x1="289" x2="345" y1="455.5" y2="455.5" class="net_197,198,199,200,201,202,203,204"/>
  <line x1="375" x2="458" y1="228.5" y2="228.5" class="net_251,252,253,254,255,256"/>
  <line x1="375" x2="441" y1="228.5" y2="228.5" class="net_251,252,253,254,255,256"/>
  <line x1="441" x2="441" y1="228.5" y2="347.5" class="net_251,252,253,254,255,256"/>
  <circle cx="441" cy="228.5" r="2" style="fill:#000" class="net_251,252,253,254,255,256"/>
  <line x1="441" x2="704" y1="347.5" y2="347.5" class="net_251,252,253,254,255,256"/>
  <line x1="376" x2="431" y1="455.5" y2="455.5" class="net_205,206,207,208,209,210,211,212"/>
  <line x1="431" x2="431" y1="455.5" y2="248.5" class="net_205,206,207,208,209,210,211,212"/>
  <circle cx="431" cy="455.5" r="2" style="fill:#000" class="net_205,206,207,208,209,210,211,212"/>
  <line x1="431" x2="458" y1="248.5" y2="248.5" class="net_205,206,207,208,209,210,211,212"/>
  <line x1="376" x2="431" y1="455.5" y2="455.5" class="net_205,206,207,208,209,210,211,212"/>
  <line x1="431" x2="431" y1="455.5" y2="518" class="net_205,206,207,208,209,210,211,212"/>
  <line x1="431" x2="505.8" y1="518" y2="518" class="net_205,206,207,208,209,210,211,212"/>
  <line x1="536.8" x2="672" y1="518" y2="518" class="net_213,214,215,216,217,218,219,220"/>
  <line x1="672" x2="672" y1="518" y2="367.5" class="net_213,214,215,216,217,218,219,220"/>
  <circle cx="672" cy="518" r="2" style="fill:#000" class="net_213,214,215,216,217,218,219,220"/>
  <line x1="672" x2="704" y1="367.5" y2="367.5" class="net_213,214,215,216,217,218,219,220"/>
  <line x1="536.8" x2="672" y1="518" y2="518" class="net_213,214,215,216,217,218,219,220"/>
  <line x1="672" x2="672" y1="518" y2="580.5" class="net_213,214,215,216,217,218,219,220"/>
  <line x1="672" x2="751.8" y1="580.5" y2="580.5" class="net_213,214,215,216,217,218,219,220"/>
  <line x1="782.8" x2="918" y1="580.5" y2="580.5" class="net_221,222,223,224,225,226,227,228"/>
  <line x1="918" x2="918" y1="580.5" y2="410" class="net_221,222,223,224,225,226,227,228"/>
  <line x1="918" x2="950" y1="410" y2="410" class="net_221,222,223,224,225,226,227,228"/>
  <line x1="1275.6666666666667" x2="1289" y1="153" y2="153" class="net_59,60,61,62,63,64,65,66,67,68,69,70,71,72,73,74"/>
  <line x1="1289" x2="1289" y1="153" y2="643" class="net_59,60,61,62,63,64,65,66,67,68,69,70,71,72,73,74"/>
  <line x1="1289" x2="1345" y1="643" y2="643" class="net_59,60,61,62,63,64,65,66,67,68,69,70,71,72,73,74"/>
  <line x1="130" x2="142" y1="475.5" y2="475.5" class="net_28"/>
  <line x1="142" x2="142" y1="475.5" y2="663" class="net_28"/>
  <circle cx="142" cy="475.5" r="2" style="fill:#000" class="net_28"/>
  <circle cx="142" cy="663" r="2" style="fill:#000" class="net_28"/>
  <line x1="142" x2="1345" y1="663" y2="663" class="net_28"/>
  <line x1="130" x2="142" y1="475.5" y2="475.5" class="net_28"/>
  <line x1="142" x2="142" y1="475.5" y2="736.5" class="net_28"/>
  <circle cx="142" cy="736.5" r="2" style="fill:#000" class="net_28"/>
  <line x1="142" x2="1608" y1="736.5" y2="736.5" class="net_28"/>
  <line x1="130" x2="142" y1="475.5" y2="475.5" class="net_28"/>
  <line x1="142" x2="142" y1="475.5" y2="180.5" class="net_28"/>
  <line x1="142" x2="213" y1="180.5" y2="180.5" class="net_28"/>
  <line x1="130" x2="345" y1="475.5" y2="475.5" class="net_28"/>
  <line x1="130" x2="142" y1="475.5" y2="475.5" class="net_28"/>
  <line x1="142" x2="142" y1="475.5" y2="538" class="net_28"/>
  <circle cx="142" cy="538" r="2" style="fill:#000" class="net_28"/>
  <line x1="142" x2="505.8" y1="538" y2="538" class="net_28"/>
  <line x1="130" x2="142" y1="475.5" y2="475.5" class="net_28"/>
  <line x1="142" x2="142" y1="475.5" y2="600.5" class="net_28"/>
  <circle cx="142" cy="600.5" r="2" style="fill:#000" class="net_28"/>
  <line x1="142" x2="751.8" y1="600.5" y2="600.5" class="net_28"/>
  <line x1="130" x2="142" y1="475.5" y2="475.5" class="net_28"/>
  <line x1="142" x2="142" y1="475.5" y2="799" class="net_28"/>
  <line x1="142" x2="1784" y1="799" y2="799" class="net_28"/>
  <line x1="1784" x2="1784" y1="799" y2="242" class="net_28"/>
  <line x1="130" x2="152" y1="200.5" y2="200.5" class="net_27"/>
  <line x1="152" x2="152" y1="200.5" y2="674" class="net_27"/>
  <line x1="152" x2="1289" y1="674" y2="674" class="net_27"/>
  <line x1="1289" x2="1289" y1="674" y2="683" class="net_27"/>
  <circle cx="152" cy="200.5" r="2" style="fill:#000" class="net_27"/>
  <circle cx="152" cy="674" r="2" style="fill:#000" class="net_27"/>
  <line x1="1289" x2="1345" y1="683" y2="683" class="net_27"/>
  <line x1="130" x2="152" y1="200.5" y2="200.5" class="net_27"/>
  <line x1="152" x2="152" y1="200.5" y2="747.5" class="net_27"/>
  <line x1="152" x2="1552" y1="747.5" y2="747.5" class="net_27"/>
  <line x1="1552" x2="1552" y1="747.5" y2="756.5" class="net_27"/>
  <line x1="1552" x2="1608" y1="756.5" y2="756.5" class="net_27"/>
  <line x1="130" x2="213" y1="200.5" y2="200.5" class="net_27"/>
  <line x1="130" x2="152" y1="200.5" y2="200.5" class="net_27"/>
  <line x1="152" x2="152" y1="200.5" y2="486.5" class="net_27"/>
  <line x1="152" x2="289" y1="486.5" y2="486.5" class="net_27"/>
  <line x1="289" x2="289" y1="486.5" y2="495.5" class="net_27"/>
  <circle cx="152" cy="486.5" r="2" style="fill:#000" class="net_27"/>
  <line x1="289" x2="345" y1="495.5" y2="495.5" class="net_27"/>
  <line x1="130" x2="152" y1="200.5" y2="200.5" class="net_27"/>
  <line x1="152" x2="152" y1="200.5" y2="549" class="net_27"/>
  <line x1="152" x2="421" y1="549" y2="549" class="net_27"/>
  <line x1="421" x2="421" y1="549" y2="558" class="net_27"/>
  <circle cx="152" cy="549" r="2" style="fill:#000" class="net_27"/>
  <line x1="421" x2="505.8" y1="558" y2="558" class="net_27"/>
  <line x1="130" x2="152" y1="200.5" y2="200.5" class="net_27"/>
  <line x1="152" x2="152" y1="200.5" y2="611.5" class="net_27"/>
  <line x1="152" x2="672" y1="611.5" y2="611.5" class="net_27"/>
  <line x1="672" x2="672" y1="611.5" y2="620.5" class="net_27"/>
  <circle cx="152" cy="611.5" r="2" style="fill:#000" class="net_27"/>
  <line x1="672" x2="751.8" y1="620.5" y2="620.5" class="net_27"/>
  <line x1="1279" x2="1289" y1="705" y2="705" class="net_269,270,271,272,273,274,275,276,277,278,279,280,281,282,283,284"/>
  <line x1="1289" x2="1289" y1="705" y2="703" class="net_269,270,271,272,273,274,275,276,277,278,279,280,281,282,283,284"/>
  <line x1="1289" x2="1345" y1="703" y2="703" class="net_269,270,271,272,273,274,275,276,277,278,279,280,281,282,283,284"/>
  <line x1="1540.3333333333333" x2="1552" y1="645.5" y2="645.5" class="net_173,174,175,176,177,178,179,180,181,182,183,184,185,186,187,188,189,190,191,192,193,194,195,196"/>
  <line x1="1552" x2="1552" y1="645.5" y2="716.5" class="net_173,174,175,176,177,178,179,180,181,182,183,184,185,186,187,188,189,190,191,192,193,194,195,196"/>
  <line x1="1552" x2="1608" y1="716.5" y2="716.5" class="net_173,174,175,176,177,178,179,180,181,182,183,184,185,186,187,188,189,190,191,192,193,194,195,196"/>
  <line x1="1542" x2="1552" y1="778.5" y2="778.5" class="net_285,286,287,288,289,290,291,292,293,294,295,296,297,298,299,300,301,302,303,304,305,306,307,308"/>
  <line x1="1552" x2="1552" y1="778.5" y2="776.5" class="net_285,286,287,288,289,290,291,292,293,294,295,296,297,298,299,300,301,302,303,304,305,306,307,308"/>
  <line x1="1552" x2="1608" y1="776.5" y2="776.5" class="net_285,286,287,288,289,290,291,292,293,294,295,296,297,298,299,300,301,302,303,304,305,306,307,308"/>
  <line x1="130" x2="172" y1="32" y2="32" class="net_2,3,4,5,6,7,8,9"/>
  <line x1="172" x2="172" y1="32" y2="160.5" class="net_2,3,4,5,6,7,8,9"/>
  <line x1="172" x2="213" y1="160.5" y2="160.5" class="net_2,3,4,5,6,7,8,9"/>
  <line x1="132" x2="162" y1="97" y2="97" class="net_237,238,239,240,241,242,243,244"/>
  <line x1="162" x2="162" y1="97" y2="220.5" class="net_237,238,239,240,241,242,243,244"/>
  <circle cx="162" cy="97" r="2" style="fill:#000" class="net_237,238,239,240,241,242,243,244"/>
  <circle cx="162" cy="220.5" r="2" style="fill:#000" class="net_237,238,239,240,241,242,243,244"/>
  <line x1="162" x2="213" y1="220.5" y2="220.5" class="net_237,238,239,240,241,242,243,244"/>
  <line x1="132" x2="162" y1="97" y2="97" class="net_237,238,239,240,241,242,243,244"/>
  <line x1="162" x2="162" y1="97" y2="497.5" class="net_237,238,239,240,241,242,243,244"/>
  <line x1="162" x2="289" y1="497.5" y2="497.5" class="net_237,238,239,240,241,242,243,244"/>
  <line x1="289" x2="289" y1="497.5" y2="515.5" class="net_237,238,239,240,241,242,243,244"/>
  <circle cx="162" cy="497.5" r="2" style="fill:#000" class="net_237,238,239,240,241,242,243,244"/>
  <line x1="289" x2="345" y1="515.5" y2="515.5" class="net_237,238,239,240,241,242,243,244"/>
  <line x1="132" x2="162" y1="97" y2="97" class="net_237,238,239,240,241,242,243,244"/>
  <line x1="162" x2="162" y1="97" y2="560" class="net_237,238,239,240,241,242,243,244"/>
  <line x1="162" x2="421" y1="560" y2="560" class="net_237,238,239,240,241,242,243,244"/>
  <line x1="421" x2="421" y1="560" y2="578" class="net_237,238,239,240,241,242,243,244"/>
  <circle cx="162" cy="560" r="2" style="fill:#000" class="net_237,238,239,240,241,242,243,244"/>
  <line x1="421" x2="505.8" y1="578" y2="578" class="net_237,238,239,240,241,242,243,244"/>
  <line x1="132" x2="162" y1="97" y2="97" class="net_237,238,239,240,241,242,243,244"/>
  <line x1="162" x2="162" y1="97" y2="622.5" class="net_237,238,239,240,241,242,243,244"/>
  <line x1="162" x2="672" y1="622.5" y2="622.5" class="net_237,238,239,240,241,242,243,244"/>
  <line x1="672" x2="672" y1="622.5" y2="640.5" class="net_237,238,239,240,241,242,243,244"/>
  <circle cx="162" cy="622.5" r="2" style="fill:#000" class="net_237,238,239,240,241,242,243,244"/>
  <line x1="672" x2="751.8" y1="640.5" y2="640.5" class="net_237,238,239,240,241,242,243,244"/>
  <line x1="132" x2="1684" y1="97" y2="97" class="net_237,238,239,240,241,242,243,244"/>
  <line x1="1684" x2="1684" y1="97" y2="239.5" class="net_237,238,239,240,241,242,243,244"/>
  <line x1="1684" x2="1749" y1="239.5" y2="239.5" class="net_237,238,239,240,241,242,243,244"/>
  <line x1="1749" x2="1749" y1="239.5" y2="237" class="net_237,238,239,240,241,242,243,244"/>
  <circle cx="1684" cy="97" r="2" style="fill:#000" class="net_237,238,239,240,241,242,243,244"/>
  <line x1="1749" x2="1774" y1="237" y2="237" class="net_237,238,239,240,241,242,243,244"/>
  <line x1="132" x2="1829" y1="97" y2="97" class="net_237,238,239,240,241,242,243,244"/>
  <line x1="132" x2="1804" y1="97" y2="97" class="net_237,238,239,240,241,242,243,244"/>
  <line x1="1804" x2="1804" y1="97" y2="162" class="net_237,238,239,240,241,242,243,244"/>
  <circle cx="1804" cy="97" r="2" style="fill:#000" class="net_237,238,239,240,241,242,243,244"/>
  <line x1="1804" x2="1829" y1="162" y2="162" class="net_237,238,239,240,241,242,243,244"/>
  <line x1="132" x2="162" y1="97" y2="97" class="net_237,238,239,240,241,242,243,244"/>
  <line x1="162" x2="162" y1="97" y2="725.5" class="net_237,238,239,240,241,242,243,244"/>
  <line x1="162" x2="1421" y1="725.5" y2="725.5" class="net_237,238,239,240,241,242,243,244"/>
  <line x1="1421" x2="1421" y1="725.5" y2="663" class="net_237,238,239,240,241,242,243,244"/>
  <line x1="1421" x2="1471" y1="663" y2="663" class="net_237,238,239,240,241,242,243,244"/>
  <line x1="1714" x2="1774" y1="217" y2="217" class="net_141,142,143,144,145,146,147,148"/>
  <line x1="1794" x2="1829" y1="227" y2="227" class="net_10,11,12,13,14,15,16,17"/>
  <line x1="488" x2="928" y1="316" y2="316" class="net_229,230"/>
  <line x1="928" x2="928" y1="316" y2="355.5" class="net_229,230"/>
  <circle cx="928" cy="316" r="2" style="fill:#000" class="net_229,230"/>
  <line x1="928" x2="1208" y1="355.5" y2="355.5" class="net_229,230"/>
  <line x1="488" x2="672" y1="316" y2="316" class="net_229,230"/>
  <line x1="672" x2="672" y1="316" y2="120.5" class="net_229,230"/>
  <circle cx="672" cy="316" r="2" style="fill:#000" class="net_229,230"/>
  <line x1="672" x2="776.3333333333334" y1="120.5" y2="120.5" class="net_229,230"/>
  <line x1="488" x2="672" y1="316" y2="316" class="net_229,230"/>
  <line x1="672" x2="672" y1="316" y2="208.5" class="net_229,230"/>
  <circle cx="672" cy="208.5" r="2" style="fill:#000" class="net_229,230"/>
  <line x1="672" x2="776.3333333333334" y1="208.5" y2="208.5" class="net_229,230"/>
  <line x1="488" x2="1018.3333333333334" y1="316" y2="316" class="net_229,230"/>
  <line x1="981" x2="1164" y1="390" y2="390" class="net_45,46,47,48,49,50,51,52,53,54,55,56,57,58"/>
  <line x1="1164" x2="1164" y1="390" y2="375.5" class="net_45,46,47,48,49,50,51,52,53,54,55,56,57,58"/>
  <line x1="1164" x2="1208" y1="375.5" y2="375.5" class="net_45,46,47,48,49,50,51,52,53,54,55,56,57,58"/>
  <line x1="489" x2="776.3333333333334" y1="140.5" y2="140.5" class="net_75,76,77,78,79,80,81,82,83,84,85,86,87,88"/>
  <line x1="489" x2="776.3333333333334" y1="228.5" y2="228.5" class="net_89,90,91,92,93,94,95,96,97,98,99,100,101,102"/>
  <line x1="735" x2="918" y1="347.5" y2="347.5" class="net_119,120,121,122,123,124,125,126,127,128,129,130,131,132"/>
  <line x1="918" x2="918" y1="347.5" y2="336" class="net_119,120,121,122,123,124,125,126,127,128,129,130,131,132"/>
  <line x1="918" x2="1018.3333333333334" y1="336" y2="336" class="net_119,120,121,122,123,124,125,126,127,128,129,130,131,132"/>
  <line x1="1376" x2="1471" y1="643" y2="643" class="net_157,158,159,160,161,162,163,164,165,166,167,168,169,170,171,172"/>
</svg>
